<mxfile host="Electron" modified="2023-08-18T06:59:19.424Z" agent="Mozilla/5.0 (Windows NT 10.0; Win64; x64) AppleWebKit/537.36 (KHTML, like Gecko) draw.io/21.4.0 Chrome/112.0.5615.204 Electron/24.5.1 Safari/537.36" etag="G0iBfnGn1WsEj0KQU_fs" version="21.4.0" type="device">
  <diagram name="Page-1" id="zEizTc-WuKDHApGXNYag">
    <mxGraphModel dx="1276" dy="606" grid="1" gridSize="10" guides="1" tooltips="1" connect="1" arrows="1" fold="1" page="1" pageScale="1" pageWidth="827" pageHeight="1169" math="0" shadow="0">
      <root>
        <mxCell id="0" />
        <mxCell id="1" parent="0" />
        <mxCell id="KeRqyAqZF3AT35ifGqF0-1" value="&lt;font style=&quot;font-size: 18px;&quot;&gt;&lt;b style=&quot;&quot;&gt;Invoice&lt;br&gt;WorkFlow&lt;br&gt;&lt;/b&gt;&lt;/font&gt;" style="text;html=1;strokeColor=none;fillColor=none;align=center;verticalAlign=middle;whiteSpace=wrap;rounded=0;" parent="1" vertex="1">
          <mxGeometry x="40" y="50" width="110" height="30" as="geometry" />
        </mxCell>
        <mxCell id="KeRqyAqZF3AT35ifGqF0-2" value="Proforma" style="ellipse;whiteSpace=wrap;html=1;" parent="1" vertex="1">
          <mxGeometry x="180" y="90" width="100" height="60" as="geometry" />
        </mxCell>
        <mxCell id="KeRqyAqZF3AT35ifGqF0-3" value="Invoiced" style="ellipse;whiteSpace=wrap;html=1;" parent="1" vertex="1">
          <mxGeometry x="400" y="90" width="100" height="60" as="geometry" />
        </mxCell>
        <mxCell id="KeRqyAqZF3AT35ifGqF0-4" value="cancelled" style="ellipse;whiteSpace=wrap;html=1;" parent="1" vertex="1">
          <mxGeometry x="400" y="210" width="100" height="60" as="geometry" />
        </mxCell>
        <mxCell id="KeRqyAqZF3AT35ifGqF0-5" value="" style="endArrow=classic;html=1;rounded=0;exitX=1;exitY=0.5;exitDx=0;exitDy=0;entryX=0;entryY=0.5;entryDx=0;entryDy=0;" parent="1" source="KeRqyAqZF3AT35ifGqF0-2" target="KeRqyAqZF3AT35ifGqF0-3" edge="1">
          <mxGeometry width="50" height="50" relative="1" as="geometry">
            <mxPoint x="460" y="260" as="sourcePoint" />
            <mxPoint x="510" y="210" as="targetPoint" />
          </mxGeometry>
        </mxCell>
        <mxCell id="KeRqyAqZF3AT35ifGqF0-7" value="" style="endArrow=classic;html=1;rounded=0;exitX=0.5;exitY=1;exitDx=0;exitDy=0;entryX=0.5;entryY=0;entryDx=0;entryDy=0;" parent="1" source="KeRqyAqZF3AT35ifGqF0-3" target="KeRqyAqZF3AT35ifGqF0-4" edge="1">
          <mxGeometry width="50" height="50" relative="1" as="geometry">
            <mxPoint x="460" y="260" as="sourcePoint" />
            <mxPoint x="510" y="210" as="targetPoint" />
          </mxGeometry>
        </mxCell>
        <mxCell id="KeRqyAqZF3AT35ifGqF0-10" value="&quot;cancel&quot;&lt;br&gt;&quot;Note_credit&#39;" style="text;html=1;strokeColor=none;fillColor=none;align=center;verticalAlign=middle;whiteSpace=wrap;rounded=0;" parent="1" vertex="1">
          <mxGeometry x="460" y="160" width="120" height="30" as="geometry" />
        </mxCell>
        <mxCell id="KeRqyAqZF3AT35ifGqF0-11" value="invoice" style="text;html=1;strokeColor=none;fillColor=none;align=center;verticalAlign=middle;whiteSpace=wrap;rounded=0;" parent="1" vertex="1">
          <mxGeometry x="310" y="90" width="60" height="30" as="geometry" />
        </mxCell>
      </root>
    </mxGraphModel>
  </diagram>
</mxfile>
